HIERARCHY
ROOT root
{
	OFFSET 0.000000 0.000000 0.000000
	CHANNELS 6 Xposition Yposition Zposition Zrotation Yrotation Xrotation
	JOINT lhip
	{
		OFFSET 0.058581 -0.082280 -0.017664
		CHANNELS 3 Zrotation Yrotation Xrotation
		JOINT lknee
		{
			OFFSET 0.043451 -0.386469 0.008037
			CHANNELS 3 Zrotation Yrotation Xrotation
			JOINT lankle
			{
				OFFSET -0.014790 -0.426874 -0.037428
				CHANNELS 3 Zrotation Yrotation Xrotation
				JOINT ltoe
				{
					OFFSET 0.041054 -0.060286 0.122042
					CHANNELS 3 Zrotation Yrotation Xrotation
					End Site
					{
						OFFSET 0.000000 0.000000 0.000000
					}
				}
			}
		}
	}
	JOINT rhip
	{
		OFFSET -0.060310 -0.090513 -0.013543
		CHANNELS 3 Zrotation Yrotation Xrotation
		JOINT rknee
		{
			OFFSET -0.043257 -0.383688 -0.004843
			CHANNELS 3 Zrotation Yrotation Xrotation
			JOINT rankle
			{
				OFFSET 0.019056 -0.420046 -0.034562
				CHANNELS 3 Zrotation Yrotation Xrotation
				JOINT rtoe
				{
					OFFSET -0.034840 -0.062106 0.130323
					CHANNELS 3 Zrotation Yrotation Xrotation
					End Site
					{
						OFFSET 0.000000 0.000000 0.000000
					}
				}
			}
		}
	}
	JOINT lowerback
	{
		OFFSET 0.004439 0.124404 -0.038385
		CHANNELS 3 Zrotation Yrotation Xrotation
		JOINT upperback
		{
			OFFSET 0.004488 0.137956 0.026820
			CHANNELS 3 Zrotation Yrotation Xrotation
			JOINT chest
			{
				OFFSET -0.002265 0.056032 0.002855
				CHANNELS 3 Zrotation Yrotation Xrotation
				JOINT lowerneck
				{
					OFFSET -0.013390 0.211636 -0.033468
					CHANNELS 3 Zrotation Yrotation Xrotation
					JOINT upperneck
					{
						OFFSET 0.010113 0.088937 0.050410
						CHANNELS 3 Zrotation Yrotation Xrotation
						End Site
						{
							OFFSET 0.000000 0.000000 0.000000
						}
					}
				}
				JOINT lclavicle
				{
					OFFSET 0.071702 0.114000 -0.018898
					CHANNELS 3 Zrotation Yrotation Xrotation
					JOINT lshoulder
					{
						OFFSET 0.122921 0.045205 -0.019046
						CHANNELS 3 Zrotation Yrotation Xrotation
						JOINT lelbow
						{
							OFFSET 0.255332 -0.015649 -0.022946
							CHANNELS 3 Zrotation Yrotation Xrotation
							JOINT lwrist
							{
								OFFSET 0.265709 0.012698 -0.007375
								CHANNELS 3 Zrotation Yrotation Xrotation
								End Site
								{
									OFFSET 0.000000 0.000000 0.000000
								}
							}
						}
					}
				}
				JOINT rclavicle
				{
					OFFSET -0.082954 0.112472 -0.023707
					CHANNELS 3 Zrotation Yrotation Xrotation
					JOINT rshoulder
					{
						OFFSET -0.113228 0.046853 -0.008472
						CHANNELS 3 Zrotation Yrotation Xrotation
						JOINT relbow
						{
							OFFSET -0.260127 -0.014369 -0.031269
							CHANNELS 3 Zrotation Yrotation Xrotation
							JOINT rwrist
							{
								OFFSET -0.269108 0.006794 -0.006027
								CHANNELS 3 Zrotation Yrotation Xrotation
								End Site
								{
									OFFSET 0.000000 0.000000 0.000000
								}
							}
						}
					}
				}
			}
		}
	}
}
MOTION
Frames: 6
Frame Time: 0.033333
0.241095 0.270240 0.982036 74.181324 -0.065291 84.720381 8.723415 3.176529 -18.085355 -1.495585 6.766682 0.770918 -2.119688 13.845331 -9.845937 0.000000 -0.000000 0.000000 2.563090 -1.213967 8.958178 0.959659 12.040699 18.637865 -1.537872 -2.863610 -23.835872 0.000000 -0.000000 0.000000 0.509002 2.288059 7.863309 1.575462 -6.030558 4.580215 1.130229 -1.770889 -2.901194 -1.102695 -0.846481 1.562677 3.930177 -3.348910 7.046827 -26.506201 -2.649533 0.872671 -54.792853 -6.090220 4.540623 11.374849 -31.135300 6.727489 -1.096817 0.875165 6.502770 23.056710 0.810601 4.151260 57.191288 -4.826423 9.005387 -7.148590 30.902456 11.548990 -14.502501 -0.818158 4.532384 
0.256095 0.273719 0.979930 73.534015 0.139028 84.988968 8.541455 3.087462 -17.550310 -1.455077 6.277731 0.707605 -2.041282 13.953321 -10.199729 0.000000 -0.000000 0.000000 2.098267 -1.098844 9.289182 1.118791 12.351305 19.146192 -1.231587 -2.476889 -24.069783 0.000000 -0.000000 0.000000 0.732483 2.255240 7.549305 1.607089 -6.039336 4.742947 1.079972 -1.722339 -2.885622 -0.972842 -0.786124 1.517041 3.765781 -3.264134 6.785070 -26.624267 -2.501409 0.892398 -55.338591 -5.453693 4.433589 11.159219 -29.423507 7.016453 -1.194771 1.043608 7.114977 23.070130 0.703019 4.148426 57.128099 -4.841756 8.818206 -7.064033 30.732547 11.513350 -14.463003 -0.825731 4.559030 
0.272441 0.277787 0.977806 72.905619 0.287891 85.368330 8.127224 2.902007 -16.755767 -1.380856 5.753238 0.584224 -1.681137 14.155291 -10.756087 0.000000 -0.000000 0.000000 1.606101 -0.862662 9.537040 1.223506 12.648515 19.710155 -0.863034 -2.281755 -24.196549 0.000000 -0.000000 0.000000 0.898388 2.227285 6.992510 1.598094 -5.972729 5.026196 0.984097 -1.691872 -2.859806 -0.824249 -0.857464 1.533208 3.629730 -3.105230 6.469497 -26.693988 -2.248112 1.041220 -55.865819 -4.897465 4.319325 10.957289 -27.910266 7.256262 -1.286823 1.182109 7.524630 23.123027 0.577669 4.162768 57.088689 -4.873362 8.756723 -7.079966 30.594684 11.399803 -14.481222 -0.797549 4.604861 
0.290304 0.282525 0.975613 72.434247 0.481201 85.834688 7.492460 2.680252 -15.789131 -1.270383 5.151451 0.601861 -1.203612 14.442288 -11.269151 0.000000 -0.000000 0.000000 1.134625 -0.686744 9.761368 1.301242 12.837697 20.297772 -0.442705 -2.205228 -24.184001 0.000000 -0.000000 0.000000 1.139017 2.151891 6.329340 1.581557 -5.926773 5.229797 0.857785 -1.624677 -2.806591 -0.693527 -0.922612 1.555320 3.413665 -2.968479 6.374318 -26.741685 -1.971617 1.218272 -56.451548 -4.232398 4.173798 10.787823 -26.638721 7.534666 -1.293186 1.147873 8.210046 23.042737 0.408335 4.131723 57.141017 -5.087469 8.646319 -7.049902 30.572606 11.382908 -14.437301 -0.682745 4.841670 
0.309124 0.287683 0.973498 72.306821 0.634893 86.449941 6.711953 2.594208 -15.097423 -1.017677 4.957356 -0.084909 -0.411351 14.419658 -10.221604 0.000000 -0.000000 0.000000 0.734331 -0.489271 9.879795 1.226345 12.897557 20.820832 -0.082474 -2.374914 -23.768657 0.000000 -0.000000 0.000000 1.197763 2.030017 5.772484 1.653535 -5.907125 5.133937 0.784441 -1.607222 -2.721900 -0.604238 -1.122244 1.584958 3.263659 -2.726164 6.247190 -26.777407 -1.438267 1.430028 -56.927588 -3.665479 4.140071 10.451253 -25.875649 7.960105 -1.156624 1.283854 8.492631 22.960755 0.071073 4.019669 57.224536 -5.252482 8.749801 -7.113047 30.500501 11.105170 -14.399463 -0.755455 5.104560 
0.327894 0.293216 0.972984 72.878597 0.499675 87.073166 6.096392 2.113699 -15.439899 -1.200220 4.847406 0.175086 0.271785 15.071833 -7.899277 0.000000 -0.000000 0.000000 0.252126 -0.257384 9.981957 1.085775 12.756548 21.358743 0.416173 -2.942084 -22.829129 0.000000 -0.000000 0.000000 0.639716 2.003149 5.558608 1.932770 -6.168546 4.765498 0.828610 -1.712312 -2.474618 -0.371919 -1.219722 1.112630 3.040666 -2.742883 6.371326 -26.835139 -0.828054 1.573735 -57.061610 -3.366939 4.429823 9.772572 -25.416852 8.619301 -0.608067 1.395787 8.322468 23.195190 -0.475290 3.568849 57.194403 -5.237515 9.249139 -7.437240 30.072564 10.440519 -14.550863 -0.989897 5.372485 
